<?xml version="1.0" encoding="utf-8"?>
<svg xmlns="http://www.w3.org/2000/svg" fill="none" height="100%" overflow="visible" preserveAspectRatio="none" style="display: block;" viewBox="0 0 708 202" width="100%">
<g id="fotter">
<g id="Container">
<path d="M280.428 118.504C286.31 95.8495 296.548 80.5325 304.242 72.6511C317.911 68.3156 356.129 79.7323 384.531 95.3422C393.3 103.206 402.571 110.876 402.921 123.413C403.465 142.853 403.235 159.604 398.728 167.179C394.609 174.104 389.033 181.347 380.432 181.425C346.928 181.728 298.601 178.577 285.754 160.446C281.203 154.024 275.305 138.236 280.428 118.504Z" fill="var(--fill-0, #91BD3C)" id="Vector 94"/>
<g id="Container_2">
<path d="M313.517 103.15C348.659 127.194 335.712 151.238 313.517 153.088C291.323 154.937 282.075 84.654 313.517 103.15Z" fill="var(--fill-0, #F6F5F2)" id="Vector 37"/>
<path d="M315.555 122.356C326.283 120.725 326.819 137.038 318.237 137.038C309.655 137.038 304.828 123.987 315.555 122.356Z" fill="var(--fill-0, #181814)" id="Vector 41" stroke="var(--stroke-0, #181814)"/>
</g>
<g id="Container_3">
<path d="M395.063 121.814C371.019 86.6727 346.975 99.6196 345.125 121.814C343.276 144.009 413.559 153.257 395.063 121.814Z" fill="var(--fill-0, #F6F5F2)" id="Vector 38"/>
<path d="M367.343 114.959C378.071 113.328 378.607 129.641 370.025 129.641C361.443 129.641 356.616 116.59 367.343 114.959Z" fill="var(--fill-0, #181814)" id="Vector 42" stroke="var(--stroke-0, #181814)"/>
</g>
</g>
<g id="Container_4">
<path d="M25.759 122.553C35.3733 107.095 57.0472 93.5464 115.686 69.4804C126.234 68.6031 129.92 68.3838 133.063 68.1502C138.73 67.6729 146.959 68.0322 160.345 69.4165C194.281 73.7778 222.564 76.5084 234.344 94.4469C238.168 100.269 240.582 105.723 239.79 111.682C237.771 126.872 231.581 145.231 221.385 152.7C209.161 161.656 163.474 180.431 118.202 179.425C85.9716 178.709 57.9292 176.152 44.9918 168.262C36.3874 163.015 30.2162 158.819 28.2958 151.811C25.5471 141.781 21.1999 129.884 25.759 122.553Z" fill="var(--fill-0, #EB3722)" id="Vector 89"/>
<g id="Container_5">
<path d="M126.647 100.893C101.74 129.931 118.568 147.787 138.259 144.231C157.951 140.675 149.633 77.5298 126.647 100.893Z" fill="var(--fill-0, #F6F5F2)" id="Vector 37_2"/>
<path d="M129.341 118.032C119.652 119.11 122.98 133.392 130.428 131.397C137.876 129.401 139.03 116.953 129.341 118.032Z" fill="var(--fill-0, #181814)" id="Vector 41_2"/>
</g>
<g id="Container_6">
<path d="M60.2107 136.055C72.9056 99.9667 96.783 105.611 103.549 124.443C110.315 143.274 51.471 167.644 60.2107 136.055Z" fill="var(--fill-0, #F6F5F2)" id="Vector 38_2"/>
<path d="M82.6774 123.655C72.9881 124.734 76.3161 139.016 83.764 137.02C91.2119 135.024 92.3667 122.576 82.6774 123.655Z" fill="var(--fill-0, #181814)" id="Vector 42_2"/>
</g>
</g>
<g id="Container_7">
<path d="M469.154 122.348C478.768 106.89 518.703 74.9792 559.08 69.2752C565.819 68.3232 573.314 68.1787 576.457 67.945C582.124 67.4677 590.353 67.8271 603.739 69.2114C637.675 73.5726 665.959 76.3033 677.739 94.2417C681.562 100.064 683.976 105.518 683.184 111.477C681.165 126.667 674.976 145.026 664.78 152.495C652.556 161.451 606.869 180.226 561.596 179.22C529.366 178.504 501.324 175.946 488.386 168.057C479.782 162.81 473.611 158.614 471.69 151.606C468.942 141.576 464.594 129.678 469.154 122.348Z" fill="var(--fill-0, #0056A1)" id="Vector 89_2"/>
<g id="Container_8">
<path d="M612.22 131.517C582.105 128.797 601.183 92.4272 620.875 95.9832C640.566 99.5392 642.335 134.238 612.22 131.517Z" fill="var(--fill-0, #F6F5F2)" id="Vector 37_3"/>
<path d="M604.134 117.263C594.444 116.184 597.772 101.902 605.22 103.898C612.668 105.893 613.823 118.342 604.134 117.263Z" fill="var(--fill-0, #181814)" id="Vector 41_3"/>
</g>
<g id="Container_9">
<path d="M545.783 96.3537C536.433 127.239 582.356 126.798 589.122 107.966C595.888 89.1347 555.134 65.4684 545.783 96.3537Z" fill="var(--fill-0, #F6F5F2)" id="Vector 38_3"/>
<path d="M550.949 105.132C541.26 104.054 544.588 89.7716 552.036 91.7673C559.484 93.763 560.638 106.211 550.949 105.132Z" fill="var(--fill-0, #181814)" id="Vector 42_3"/>
</g>
</g>
<g id="Container_10">
<g id="Container_11">
<path d="M164.571 98.7124C171.43 83.3456 185.365 66.7555 191.48 61.7561C231.103 54.8512 271.652 51.9368 289.312 58.9923C296.099 63.8658 304.418 68.8726 304.278 79.5494C303.706 122.877 300.521 152.037 288.58 164.601C281.74 171.798 277.069 178.52 263.629 178.233C219.842 177.297 175.855 175.54 169.033 160.761C162.967 147.62 154.597 121.057 164.571 98.7124Z" fill="var(--fill-0, #FFD226)" id="Vector 96"/>
<g id="Container_12">
<path d="M191.191 137.292C226.34 113.171 213.39 89.0491 191.191 87.1936C168.992 85.3381 159.742 155.848 191.191 137.292Z" fill="var(--fill-0, #F6F5F2)" id="Vector 37_4"/>
<path d="M191.36 116.476C202.535 118.021 203.094 102.572 194.154 102.572C185.213 102.572 180.184 114.931 191.36 116.476Z" fill="var(--fill-0, #181814)" id="Vector 41_4" stroke="var(--stroke-0, #181814)"/>
</g>
<g id="Container_13">
<path d="M275.547 127.717C250.156 164.037 224.764 150.656 222.811 127.717C220.858 104.778 295.079 95.2197 275.547 127.717Z" fill="var(--fill-0, #F6F5F2)" id="Vector 38_4"/>
<path d="M247.411 134.682C258.587 136.381 259.146 119.387 250.205 119.387C241.265 119.387 236.236 132.982 247.411 134.682Z" fill="var(--fill-0, #181814)" id="Vector 42_4" stroke="var(--stroke-0, #181814)"/>
</g>
</g>
</g>
<g id="Container_14">
<g id="Container_15">
<path d="M400.087 101.681C406.946 86.3142 412.908 75.6905 426.996 64.7247C457.157 41.248 481.485 51.6054 499.145 58.6609C505.933 63.5344 539.934 71.8412 539.794 82.518C539.222 125.845 527.951 149.666 516.01 162.23C509.169 169.427 512.585 181.488 499.145 181.201C455.358 180.266 389.406 172.809 382.584 158.03C376.518 144.889 390.114 124.025 400.087 101.681Z" fill="var(--fill-0, #1CA9B0)" id="Vector 96_2"/>
<g id="Container_16">
<path d="M426.707 140.26C461.856 116.139 448.906 92.0171 426.707 90.1616C404.508 88.3061 395.258 158.816 426.707 140.26Z" fill="var(--fill-0, #F6F5F2)" id="Vector 37_5"/>
<path d="M426.876 119.444C438.051 120.989 438.61 105.54 429.67 105.54C420.729 105.54 415.701 117.899 426.876 119.444Z" fill="var(--fill-0, #181814)" id="Vector 41_5" stroke="var(--stroke-0, #181814)"/>
</g>
<g id="Container_17">
<path d="M511.063 130.685C485.672 167.005 460.28 153.624 458.327 130.685C456.374 107.746 530.595 98.1877 511.063 130.685Z" fill="var(--fill-0, #F6F5F2)" id="Vector 38_5"/>
<path d="M482.927 137.65C494.103 139.349 494.661 122.355 485.721 122.355C476.781 122.355 471.752 135.95 482.927 137.65Z" fill="var(--fill-0, #181814)" id="Vector 42_5" stroke="var(--stroke-0, #181814)"/>
</g>
</g>
</g>
</g>
</svg>