<?xml version="1.0" encoding="utf-8"?>
<svg xmlns="http://www.w3.org/2000/svg" fill="none" height="100%" overflow="visible" preserveAspectRatio="none" style="display: block;" viewBox="0 0 300 298" width="100%">
<g id="collaboration">
<g id="Body">
<path d="M170.92 100.422C175.124 103.067 177.423 104.829 178.631 105.76C179.111 106.287 184.727 110.353 185.305 110.977C186.552 112.316 190.677 113.807 194.284 119.955C196.127 123.513 198.095 127.868 199.273 131.294C201.235 136.997 202.183 140.942 202.654 144.712C203.26 149.577 203.796 153.037 203.772 154.831C203.74 157.155 203.35 161.565 202.088 166.374C201.384 169.056 200.254 172.527 197.403 176.818C194.776 180.771 191.276 185.013 187.13 188.342C181.412 192.933 176.085 196.387 171.357 198.124C164.649 200.589 159.313 202.53 156.994 202.874C154.792 203.201 148.696 203.858 140.875 203.236C136.777 202.909 132.319 201.735 127.373 199.249C124.52 197.814 121.602 195.464 118.361 191.453C115.319 187.689 111.166 182.346 107.664 174.028C103.742 164.713 101.706 158.089 100.536 155.075C99.3481 152.015 97.8748 148.482 97.664 144.401C97.4554 140.362 97.4071 136.463 98.5505 133.075C99.7106 129.637 102.753 122.744 108.36 114.8C110.807 111.333 112.86 109.171 114.945 107.392C118.888 104.028 124.866 100.278 132.703 97.934C136.297 96.8595 139.298 96.4436 143.766 96.1762C148.235 95.9088 154.003 95.6519 157.198 95.826C161.019 96.0341 165.441 96.974 170.92 100.422Z" fill="#FFD226"/>
<path d="M101.709 26.5799C113.667 23.8348 120.758 22.8887 124.492 22.3996C126.25 22.4827 143.153 19.7522 145.251 19.834C149.767 19.9964 159.571 15.3576 176.603 19.834C186.032 22.8553 197.07 27.0592 205.109 31.018C218.492 37.6081 227.036 42.8885 234.439 48.7012C243.992 56.2022 250.967 61.3522 254.057 64.5551C258.059 68.7053 265.078 77.1604 271.27 87.8556C274.723 93.819 278.811 101.923 281.325 114.506C283.641 126.095 284.936 139.732 283.51 152.899C281.544 171.058 278.274 186.526 273.052 197.913C265.643 214.071 259.717 226.89 256.269 231.581C252.995 236.036 243.501 247.93 228.759 260.61C221.035 267.254 211.202 273.036 198.228 277.369C190.741 279.869 181.542 280.868 168.883 279.512C157.001 278.24 140.421 276.144 119.785 267.66C96.675 258.16 81.5551 250.077 74.2509 246.829C66.8334 243.53 58.0931 239.902 50.6012 233.086C43.1845 226.338 36.2935 219.555 32.3738 211.573C28.3968 203.473 21.6736 185.972 17.5933 162.102C15.8127 151.685 15.6218 144.262 16.1561 137.453C17.166 124.583 21.0551 107.447 30.646 89.5136C35.0435 81.291 39.5564 75.2726 46.8916 66.9298C54.2268 58.5869 63.847 47.9758 69.7302 42.6533C76.7633 36.2904 86.1239 30.1575 101.709 26.5799Z" stroke="var(--stroke-0, #FFD226)" stroke-linecap="round" stroke-width="10"/>
<path d="M170.92 100.422C175.124 103.067 177.423 104.829 178.631 105.76C179.111 106.287 184.727 110.353 185.305 110.977C186.552 112.316 190.677 113.807 194.284 119.955C196.127 123.513 198.095 127.868 199.273 131.294C201.235 136.997 202.183 140.942 202.654 144.712C203.26 149.577 203.796 153.037 203.772 154.831C203.74 157.155 203.35 161.565 202.088 166.374C201.384 169.056 200.254 172.527 197.403 176.818C194.776 180.771 191.276 185.013 187.13 188.342C181.412 192.933 176.085 196.387 171.357 198.124C164.649 200.589 159.313 202.53 156.994 202.874C154.792 203.201 148.696 203.858 140.875 203.236C136.777 202.909 132.319 201.735 127.373 199.249C124.52 197.814 121.602 195.464 118.361 191.453C115.319 187.689 111.166 182.346 107.664 174.028C103.742 164.713 101.706 158.089 100.536 155.075C99.3481 152.015 97.8748 148.482 97.664 144.401C97.4554 140.362 97.4071 136.463 98.5505 133.075C99.7106 129.637 102.753 122.744 108.36 114.8C110.807 111.333 112.86 109.171 114.945 107.392C118.888 104.028 124.866 100.278 132.703 97.934C136.297 96.8595 139.298 96.4436 143.766 96.1762C148.235 95.9088 154.003 95.6519 157.198 95.826C161.019 96.0341 165.441 96.974 170.92 100.422Z" stroke="var(--stroke-0, #FFD226)" stroke-linecap="round" stroke-width="10"/>
<path d="M186.954 63.1874C194.381 67.8605 198.442 70.9734 200.577 72.6173C201.425 73.5483 211.345 80.7301 212.366 81.8327C214.569 84.1986 221.855 86.8323 228.227 97.6933C231.482 103.978 234.958 111.67 237.041 117.722C240.507 127.797 242.181 134.766 243.012 141.426C244.084 150.02 245.03 156.131 244.987 159.3C244.931 163.406 244.243 171.196 242.012 179.691C240.769 184.428 238.773 190.56 233.736 198.141C229.096 205.123 222.914 212.616 215.59 218.497C205.489 226.607 196.079 232.709 187.728 235.777C175.877 240.13 166.451 243.56 162.354 244.168C158.464 244.745 147.697 245.906 133.88 244.806C126.641 244.23 118.767 242.155 110.031 237.764C104.99 235.23 99.8347 231.077 94.1102 223.993C88.7373 217.344 81.4002 207.905 75.2138 193.212C68.2857 176.757 64.6897 165.055 62.623 159.732C60.5243 154.325 57.9217 148.084 57.5494 140.877C57.1809 133.741 57.0956 126.854 59.1153 120.869C61.1646 114.796 66.539 102.619 76.4441 88.5859C80.7665 82.4621 84.3921 78.6435 88.0765 75.4999C95.0407 69.5578 105.601 62.9329 119.446 58.7928C125.793 56.8946 131.094 56.16 138.989 55.6876C146.883 55.2152 157.071 54.7615 162.716 55.069C169.465 55.4365 177.276 57.0969 186.954 63.1874Z" stroke="var(--stroke-0, #FFD226)" stroke-linecap="round" stroke-width="10"/>
</g>
<path d="M123.544 97.8313C126.914 95.695 128.813 95.1186 132.404 94.3079C135.714 93.5607 136.51 93.3561 141.021 93.6565C145.532 93.9568 151.954 96.1908 153.628 96.943C154.742 97.4434 157.136 98.5313 160.258 99.6501C161.732 100.179 164.069 100.839 169.926 104.29C174.036 106.712 180.295 110.509 183.969 113.207C188.996 116.897 191.002 118.723 192.091 120.323C193.116 121.828 194.111 124.03 195.306 126.157C196.027 127.44 198.172 130.486 200.32 136.768C202.656 143.598 204.041 148.417 203.999 152.302C203.97 154.985 203.78 159.029 202.911 164.135C202.042 169.241 200.541 175.227 199.086 179.773C197.631 184.318 196.297 187.352 195.372 189.212L195.347 189.263C194.065 191.841 193.223 193.535 191.541 195.467C186.384 201.389 184.278 201.323 179 203.687C173.555 206.126 172.211 206.433 165.4 206.848C162.852 207.004 158.381 207.565 155.184 207.521C148.026 207.423 143.78 206.292 138.91 205.816C132.911 205.23 130.433 204.746 128.335 203.687C125.767 202.391 123.12 200.405 120.284 197.798C119.493 197.071 115.735 192.829 110.218 186.632C107.347 183.406 103.215 179.923 100.898 174.626C99.0059 170.299 98.3882 166.263 98.1533 159.745C98.0913 158.023 97.7911 152.777 98.252 145.625C98.5142 141.555 99.0177 139.513 99.8668 133.236C100.55 128.184 101.574 121.412 104.353 117.083C104.945 116.16 106.341 114.326 109.986 110.743C112.355 108.415 115.813 105.245 117.678 103.409C119.904 101.22 121.223 99.3022 123.544 97.8313Z" fill="var(--fill-0, #FFD226)" id="Vector 118"/>
<path d="M115 151.523C117.535 155.42 120.966 158.757 123.572 161.247C126.178 163.736 128.03 165.052 131.766 167.021C135.501 168.989 141.065 171.569 145.032 173.138C148.999 174.707 151.201 175.186 154.666 175.399C158.131 175.612 162.793 175.546 166.137 175.241C171.391 174.763 173.765 173.614 177.289 171.192C180.356 168.996 186.019 164.838 189.234 162.336C192.449 159.833 193.044 159.113 194 158.055" id="Smile" stroke="var(--stroke-0, #EB3722)" stroke-linecap="round" stroke-width="6"/>
<g id="Eyes">
<g id="Eye Left">
<path d="M176.413 128.659C195.287 141.572 182.602 147.212 170.681 148.206C158.761 149.199 159.525 118.725 176.413 128.659Z" fill="var(--fill-0, #F6F5F2)" id="Vector 37"/>
<path d="M179.723 133.688C185.484 132.812 185.772 141.573 181.163 141.573C176.554 141.573 173.961 134.564 179.723 133.688Z" fill="var(--fill-0, #181814)" id="Vector 41"/>
</g>
<g id="Eye Right">
<path d="M132.704 130.962C122.816 151.582 136.952 152.52 147.772 147.42C158.593 142.32 142.362 113.916 132.704 130.962Z" fill="var(--fill-0, #F6F5F2)" id="Vector 38"/>
<path d="M146.954 135.009C152.716 134.133 153.004 142.894 148.395 142.894C143.785 142.894 141.193 135.885 146.954 135.009Z" fill="var(--fill-0, #181814)" id="Vector 42"/>
</g>
</g>
</g>
</svg>