<?xml version="1.0" encoding="utf-8"?>
<svg xmlns="http://www.w3.org/2000/svg" fill="none" height="100%" overflow="visible" preserveAspectRatio="none" style="display: block;" viewBox="0 0 200 198.884" width="100%">
<g id="Group 16">
<path d="M100.201 21.4108C116.749 4.365 146.383 -5.13165 196.599 2.8853C196.614 2.88032 197.018 2.96075 197.017 2.95218C197.009 2.95237 197.091 3.36499 197.085 3.37622C204.992 52.8992 196.029 82.5672 179.624 99.4418C196.029 116.316 204.992 145.984 197.085 195.507C197.092 195.517 197.009 195.931 197.017 195.931C197.018 195.923 196.613 196.004 196.599 195.998C146.383 204.015 116.749 194.519 100.201 177.473C83.4634 194.354 53.6503 203.711 3.37596 195.684C3.37738 195.693 2.9505 195.608 2.95192 195.617C2.96063 195.618 2.87722 195.2 2.88504 195.197C-5.02947 145.622 4.1265 116.109 20.7631 99.4418C4.12654 82.7743 -5.02951 53.2613 2.88504 3.68643C2.87737 3.68315 2.96055 3.26559 2.95192 3.26665C2.9505 3.27546 3.37738 3.19097 3.37596 3.19977C53.6502 -4.82734 83.4634 4.52974 100.201 21.4108Z" fill="var(--fill-0, #EC6C23)" id="Union"/>
</g>
</svg>