<?xml version="1.0" encoding="utf-8"?>
<svg xmlns="http://www.w3.org/2000/svg" fill="none" height="100%" overflow="visible" preserveAspectRatio="none" style="display: block;" viewBox="0 0 128.772 128.772" width="100%">
<path d="M0 46.0413C0 29.9254 0 21.8674 3.20807 15.7119C6.02996 10.2974 10.5327 5.89521 16.071 3.13638C22.3672 0 30.6094 0 47.0937 0H81.6781C98.1625 0 106.405 0 112.701 3.13638C118.239 5.89521 122.742 10.2974 125.564 15.7119C128.772 21.8674 128.772 29.9254 128.772 46.0413V82.7305C128.772 98.8465 128.772 106.904 125.564 113.06C122.742 118.474 118.239 122.877 112.701 125.635C106.405 128.772 98.1625 128.772 81.6781 128.772H47.0937C30.6094 128.772 22.3672 128.772 16.071 125.635C10.5327 122.877 6.02996 118.474 3.20807 113.06C0 106.904 0 98.8465 0 82.7305V46.0413Z" fill="var(--fill-0, #D9D9D9)" id="Rectangle 9"/>
</svg>