<?xml version="1.0" encoding="utf-8"?>
<svg xmlns="http://www.w3.org/2000/svg" fill="none" height="100%" overflow="visible" preserveAspectRatio="none" style="display: block;" viewBox="0 0 200 198.884" width="100%">
<g id="Group 15">
<path d="M100.202 21.4108C116.749 4.36498 146.383 -5.13166 196.599 2.88529C196.614 2.88031 197.018 2.96074 197.017 2.95217C197.009 2.95236 197.091 3.36498 197.085 3.37621C204.993 52.8992 196.029 82.5672 179.624 99.4418C196.029 116.316 204.993 145.984 197.085 195.507C197.092 195.517 197.009 195.931 197.017 195.931C197.018 195.923 196.613 196.004 196.599 195.998C146.383 204.015 116.749 194.519 100.202 177.473C83.4635 194.354 53.6504 203.711 3.37604 195.684C3.37746 195.693 2.95058 195.608 2.952 195.617C2.96071 195.618 2.8773 195.2 2.88512 195.197C-5.02939 145.622 4.12658 116.109 20.7632 99.4418C4.12662 82.7743 -5.02943 53.2613 2.88512 3.68642C2.87745 3.68314 2.96063 3.26558 2.952 3.26664C2.95058 3.27545 3.37746 3.19096 3.37604 3.19976C53.6503 -4.82735 83.4635 4.52973 100.202 21.4108Z" fill="var(--fill-0, #EC6C23)" id="Union"/>
</g>
</svg>