<?xml version="1.0" encoding="utf-8"?>
<svg xmlns="http://www.w3.org/2000/svg" fill="none" height="100%" overflow="visible" preserveAspectRatio="none" style="display: block;" viewBox="0 0 200 198.884" width="100%">
<g id="Group 13">
<path d="M100.201 21.4109C116.749 4.36503 146.383 -5.13161 196.599 2.88533C196.614 2.88035 197.018 2.96079 197.017 2.95221C197.009 2.9524 197.091 3.36502 197.085 3.37626C204.992 52.8993 196.029 82.5673 179.624 99.4419C196.029 116.316 204.992 145.984 197.085 195.507C197.092 195.517 197.009 195.931 197.017 195.932C197.018 195.923 196.613 196.004 196.599 195.998C146.383 204.015 116.749 194.519 100.201 177.473C83.4634 194.354 53.6503 203.711 3.37596 195.684C3.37738 195.693 2.9505 195.608 2.95192 195.617C2.96063 195.618 2.87722 195.2 2.88504 195.197C-5.02947 145.622 4.1265 116.109 20.7631 99.4419C4.12654 82.7743 -5.02951 53.2613 2.88504 3.68646C2.87737 3.68319 2.96055 3.26562 2.95192 3.26669C2.9505 3.27549 3.37738 3.19101 3.37596 3.19981C53.6502 -4.82731 83.4634 4.52977 100.201 21.4109Z" fill="var(--fill-0, #EC6C23)" id="Union"/>
</g>
</svg>