<?xml version="1.0" encoding="utf-8"?>
<svg xmlns="http://www.w3.org/2000/svg" fill="none" height="100%" overflow="visible" preserveAspectRatio="none" style="display: block;" viewBox="0 0 170 170" width="100%">
<g id="how_it_works_step3">
<g id="Container">
<path d="M10 23.4858C10.239 24.8677 12.8418 29.4663 20.8374 36.4466C27.2386 42.0351 36.4564 45.134 47.4713 48.5836C53.5601 50.4904 60.8379 51.3235 71.7359 51.8285C82.6339 52.3335 96.9765 52.1295 108.032 50.942C126.51 48.9572 135.837 44.145 141.867 40.5286C152.38 34.223 159.695 30.0286 160.635 27.758C161.155 26.5004 161.045 24.5007 160.764 22.8594C160.217 19.6664 158.529 17.7429 156.672 16.2403C153.975 14.0589 150.947 13.4448 144.675 12.8286C139.532 12.3232 130.376 12.335 112.75 13.7173C95.1248 15.0997 69.2984 18.0846 55.1249 19.8999C39.1929 21.9404 36.6968 23.1266 35.0741 24.1727C29.4424 27.8032 26.3809 39.9403 25.5374 46.2094C24.4769 54.0917 27.6149 59.8744 31.5372 67.384C33.374 70.9007 36.7491 74.2199 41.17 77.9493C45.4019 81.5193 52.169 83.1045 65.1429 85.1336C73.8714 86.4988 87.0633 86.6447 96.6025 86.7718C111.657 86.9725 118.457 85.7878 122.533 84.8745C137.005 81.6324 144.138 79.1912 147.24 74.4444C147.853 73.5064 147.53 72.1164 147.173 70.6626C146.34 67.2694 143.988 64.5355 140.585 62.6242C136.131 60.1225 131.346 60.4423 121.014 61.9134C112.55 63.1185 97.623 66.3266 89.3488 68.1323C76.1926 71.0035 69.0058 77.265 64.9866 81.0357C61.1613 84.6245 57.7982 92.5111 55.5729 99.6174C54.7034 102.394 54.8853 105.164 55.2898 107.613C56.3971 114.319 63.63 115.794 80.1688 118.901C87.904 120.355 99.524 119.392 108.001 118.873C128.14 117.639 134.225 112.754 137.54 109.359C138.227 108.656 138.176 106.777 137.995 105.397C137.815 104.017 137.218 102.798 136.037 101.913C133.287 99.8515 128.093 99.9837 122.841 100.055C120.033 100.094 110.73 103.678 97.1816 109.099C88.5148 112.566 84.6521 119.456 81.8256 124.532C80.2328 127.393 79.8969 131.195 80.0634 134.126C80.2543 137.488 82.5804 139.514 85.0615 141.096C93.5304 146.495 105.63 145.53 110.138 143.056C110.856 142.661 110.675 140.777 110.412 139.839C110.15 138.902 109.445 138.333 108.584 138.09C106.756 137.576 104.626 138.557 102.675 139.677C99.8265 143.048 97.3632 148.37 95.8112 153.568C95.5277 154.827 95.3109 156.036 95.0876 157.523" id="Vector 112" stroke="var(--stroke-0, #1CA9B0)" stroke-linecap="round" stroke-width="13"/>
<g id="Container_2">
<g id="Container_3">
<path d="M117.17 52.3762C141.268 68.865 125.072 76.0669 109.852 77.3353C94.6313 78.6037 95.6074 39.6926 117.17 52.3762Z" fill="var(--fill-0, white)" id="Vector 37"/>
<path d="M111.252 59.5774C118.609 58.4587 118.977 69.6457 113.091 69.6457C107.206 69.6457 103.896 60.6961 111.252 59.5774Z" fill="var(--fill-0, black)" id="Vector 41"/>
</g>
</g>
<path d="M62.4403 68.2864C62.846 67.4023 64.8165 64.2045 66.2891 62.4974C67.5951 60.9833 70.1557 60.3126 71.7776 59.9735C73.6616 59.5796 75.5334 59.9524 77.9162 60.4469C79.6355 60.8036 82.8449 63.5312 84.5276 65.411C85.0826 66.5454 85.432 67.4519 85.5548 68.0874C85.6166 68.4382 85.6775 68.8468 85.8018 69.3292" id="Vector 113" stroke="var(--stroke-0, #181814)" stroke-linecap="round" stroke-width="5"/>
<path d="M61.4982 83.7738C61.4569 83.8551 61.4559 84.1825 61.5982 84.7604C61.76 85.4177 64.1052 87.4384 68.3329 90.7579C70.4995 92.459 73.2281 93.476 76.3132 94.5252C82.7984 96.7307 86.7782 97.3712 89.1866 97.5132C91.3028 97.6379 95.2381 97.7924 98.3019 97.6946C101.366 97.5967 103.44 97.2222 106.707 96.4045C109.974 95.5869 114.372 94.3375 116.856 93.6066C121.645 92.1975 124.901 89.771 127.999 87.0043C128.87 86.1104 129.5 85.4217 130.192 84.7133C130.488 84.4043 130.671 84.1977 131.105 83.6094" id="Vector 114" stroke="var(--stroke-0, #181814)" stroke-linecap="round" stroke-width="5"/>
</g>
</g>
</svg>