<?xml version="1.0" encoding="utf-8"?>
<svg xmlns="http://www.w3.org/2000/svg" fill="none" height="100%" overflow="visible" preserveAspectRatio="none" style="display: block;" viewBox="0 0 170 170" width="100%">
<g id="how_it_works_step2">
<g id="Container">
<path d="M9.17934 72.3662C17.2493 64.8091 32.0936 60.2679 70.2757 55.3672C76.6015 56.5106 78.7981 56.9613 80.6787 57.3183C84.0781 57.9291 88.849 59.4334 96.4841 62.3496C115.706 70.2424 131.869 76.2901 135.96 88.6651C137.288 92.6814 137.847 96.2603 136.445 99.6319C132.873 108.225 126.357 118.022 119.201 120.801C110.622 124.134 80.87 127.966 54.4697 120.26C35.675 114.774 19.6264 108.865 13.2771 102.204C9.05419 97.7731 6.09356 94.3415 6.06854 89.9286C6.03274 83.6123 5.35263 75.9497 9.17934 72.3662Z" fill="var(--fill-0, #91BD3C)" id="Vector 89"/>
<g id="Container_2">
<path d="M71.7681 75.5176C52.5928 88.6375 59.6574 101.757 71.7681 102.767C83.8788 103.776 88.925 65.4253 71.7681 75.5176Z" fill="var(--fill-0, #F6F5F2)" id="Vector 37"/>
<path d="M70.6547 85.9956C64.8011 85.1054 64.5084 94.0068 69.1913 94.0068C73.8742 94.0068 76.5083 86.8857 70.6547 85.9956Z" fill="var(--fill-0, #181814)" id="Vector 41"/>
</g>
<g id="Container_3">
<path d="M27.2675 85.7022C40.3874 66.5269 53.5074 73.5915 54.5166 85.7022C55.5258 97.8129 17.1752 102.859 27.2675 85.7022Z" fill="var(--fill-0, #F6F5F2)" id="Vector 38"/>
<path d="M42.3964 81.9591C36.5428 81.069 36.2501 89.9703 40.933 89.9703C45.6159 89.9703 48.25 82.8492 42.3964 81.9591Z" fill="var(--fill-0, #181814)" id="Vector 42"/>
</g>
</g>
<g id="Container_4">
<g id="Container_5">
<path d="M80.4415 35.6578C84.6071 26.3252 93.0705 16.2495 96.7838 13.2133C120.848 9.01977 145.474 7.24974 156.2 11.5348C160.322 14.4946 165.375 17.5353 165.289 24.0196C164.942 50.3334 163.008 68.0435 155.756 75.6736C151.601 80.0446 148.764 84.1269 140.602 83.9525C114.009 83.3844 87.2947 82.3174 83.1514 73.3413C79.4677 65.3609 74.3844 49.2282 80.4415 35.6578Z" fill="var(--fill-0, #EB3722)" id="Vector 96"/>
<g id="Container_6">
<path d="M96.6087 59.0887C117.956 44.439 110.091 29.7892 96.6087 28.6623C83.1265 27.5354 77.5089 70.3578 96.6087 59.0887Z" fill="var(--fill-0, #F6F5F2)" id="Vector 37_2"/>
<path d="M96.7112 46.4463C103.498 47.3846 103.838 38.0019 98.408 38.0019C92.9783 38.0019 89.9241 45.5081 96.7112 46.4463Z" fill="var(--fill-0, #181814)" id="Vector 41_2" stroke="var(--stroke-0, #181814)"/>
</g>
<g id="Container_7">
<path d="M147.84 53.273C132.419 75.3314 116.999 67.2046 115.812 53.273C114.626 39.3414 159.702 33.5365 147.84 53.273Z" fill="var(--fill-0, #F6F5F2)" id="Vector 38_2"/>
<path d="M130.753 57.5032C137.54 58.5353 137.879 48.2143 132.449 48.2143C127.02 48.2143 123.966 56.4711 130.753 57.5032Z" fill="var(--fill-0, #181814)" id="Vector 42_2" stroke="var(--stroke-0, #181814)"/>
</g>
</g>
</g>
<g id="Container_8">
<path d="M78.8378 121.345C82.4101 107.586 88.6282 98.2833 93.3007 93.4967C101.602 90.8636 124.813 97.7973 142.062 107.278C147.388 112.053 153.018 116.712 153.231 124.326C153.562 136.132 153.422 146.305 150.685 150.906C148.183 155.112 144.797 159.51 139.573 159.558C119.225 159.742 89.8748 157.828 82.0724 146.817C79.3086 142.917 75.7265 133.328 78.8378 121.345Z" fill="var(--fill-0, #0056A1)" id="Vector 94"/>
<g id="Container_9">
<path d="M98.934 112.019C120.276 126.622 112.413 141.225 98.934 142.348C85.4546 143.471 79.8381 100.786 98.934 112.019Z" fill="var(--fill-0, #F6F5F2)" id="Vector 37_3"/>
<path d="M100.172 123.684C106.687 122.693 107.013 132.601 101.8 132.601C96.5884 132.601 93.6565 124.675 100.172 123.684Z" fill="var(--fill-0, #181814)" id="Vector 41_3" stroke="var(--stroke-0, #181814)"/>
</g>
<g id="Container_10">
<path d="M148.459 123.355C133.856 102.012 119.254 109.875 118.13 123.355C117.007 136.834 159.692 142.451 148.459 123.355Z" fill="var(--fill-0, #F6F5F2)" id="Vector 38_3"/>
<path d="M131.624 119.192C138.139 118.201 138.465 128.108 133.253 128.108C128.041 128.108 125.109 120.182 131.624 119.192Z" fill="var(--fill-0, #181814)" id="Vector 42_3" stroke="var(--stroke-0, #181814)"/>
</g>
</g>
</g>
</svg>