<?xml version="1.0" encoding="utf-8"?>
<svg xmlns="http://www.w3.org/2000/svg" fill="none" height="100%" overflow="visible" preserveAspectRatio="none" style="display: block;" viewBox="0 0 170 170" width="100%">
<g id="how_it_works_step1">
<path d="M72.1056 19.0137C71.4483 23.2277 70.7426 26.0206 70.5381 26.5645C67.4301 22.197 59.2536 18.182 57.4007 14.5785C56.7549 13.5925 56.646 14.2156 56.5734 14.891C56.1377 18.9448 57.5388 36.2271 53.658 33.6433C52.9269 33.1565 50.4541 28.8763 36.5244 21.19C34.2216 19.9193 34.3155 20.4953 34.3737 22.2873C34.6456 30.6642 40.8233 43.0103 35.1603 44.8821C34.2453 45.1845 15.5664 36.2187 16.3347 41.9185C16.5065 43.1935 16.7996 44.7916 18.1179 46.9201C21.8898 53.0103 24.3532 56.476 30.8006 65.7459C32.1297 67.6568 32.4232 68.5507 27.1484 68.4118C11.3447 67.9958 -0.0233585 67.8885 3.60415e-05 68.8766C0.0105704 69.3216 0.426602 69.7393 6.05109 71.5738C11.6756 73.4083 22.1899 76.5639 27.7428 78.2767C33.2956 79.9895 33.8696 80.2514 34.1355 80.9562C34.4014 81.6609 34.4105 83.139 32.3131 83.2432C26.3311 83.5404 17.3632 83.3225 10.2849 84.8944C7.89565 85.425 7.90552 85.9793 8.12841 86.6264C8.3513 87.2734 8.76649 87.9955 9.16609 88.7406C10.7128 91.6243 13.0947 94.3559 16.4583 96.6512C18.9135 98.3266 22.5792 99.5664 31.5477 104.365C33.0227 105.154 32.5066 105.452 31.7149 105.667C29.9291 106.152 13.6476 104.657 10.1806 111.242C9.96854 111.645 10.0188 112.268 10.6777 112.764C12.2697 113.963 15.334 116.055 18.9853 117.069C23.581 118.345 30.9916 116.622 30.4176 119.794C30.3457 120.192 29.1753 120.658 27.1907 121.817C18.982 126.612 15.9167 127.729 14.0464 130.021C13.5899 130.581 13.2698 131.272 14.4272 131.87C15.5847 132.468 18.1422 132.959 24.4782 133.605C30.8142 134.251 40.6311 135.029 44.1865 136.481C47.7419 137.932 45.1472 140.041 43.0314 141.503C36.8907 145.747 25.0686 154.682 29.0187 154.749C29.8503 154.763 32.3905 155.542 49.85 148.325C60.0846 144.094 66.799 139.799 70.1954 139.168C71.2562 138.971 71.2955 139.801 71.4011 140.785C71.8245 144.731 69.2371 169.724 74.3879 164.985C74.9286 164.487 80.3457 143.65 83.6041 149.34C85.2037 152.133 95.168 174.104 100.286 168.593C100.639 168.214 101.062 167.031 101.574 164.513C103.749 153.822 102.667 141.412 107.239 141.736C107.804 141.776 108.591 142.377 111.844 145.035C120.666 152.244 131.241 161.943 132.274 158.481C133.469 154.481 133.353 150.441 132.805 146.493C131.704 138.571 129.184 130.511 131.402 129.365C132.242 128.931 133.366 129.99 135.167 130.47C142.893 132.529 154.868 140.203 156.365 136.563C156.531 136.16 152.332 130.836 145.72 116.249C143.972 112.39 142.379 109.942 143.707 108.908C145.941 107.169 155.922 105.891 164.787 99.8021C167.535 97.9145 165.914 96.4429 164.2 94.8903C160.734 91.7506 151.358 87.0553 148.939 82.0184C148.647 81.4106 148.395 80.6302 148.678 80.125C149.208 79.1771 158.703 73.2179 166.889 64.3605C168.191 62.9517 169.05 61.4217 165.779 60.8095C155.717 58.9265 140.866 60.8501 141.935 57.5292C142.248 56.5558 144.114 54.0422 147.455 52.0326C151.592 49.5439 175.666 40.0331 168.764 39.2565C166.464 38.9977 156.602 39.51 144.192 41.4122C138.33 42.3106 135.029 43.5888 133.342 42.1764C132.724 41.6593 132.963 40.6014 133.373 39.3188C135.309 33.2525 139.286 25.3182 140.02 20.7512C140.149 19.9486 140.093 18.6337 139.378 18.8065C137.311 19.3057 134.545 20.2288 131.923 21.2382C129.274 22.2582 121.095 26.2015 110.951 31.4804L110.906 31.5035C107.399 33.3283 106.805 33.6375 106.579 29.9062C105.893 18.6163 105.691 8.76826 104.431 6.09521C104.05 5.28661 103.67 5.69553 103.328 6.14992C102.646 7.055 101.726 8.16151 100.648 9.29366C98.6014 11.4432 90.4193 22.9354 88.6053 19.0662C87.7914 17.33 87.193 15.5982 86.3597 14.2717C83.503 9.72357 76.2361 -2.38084 74.849 1.09509C74.33 2.39564 74.0472 4.34364 73.8887 6.15578C73.5943 9.52215 72.9153 13.8227 72.1056 19.0137Z" fill="var(--fill-0, #EC6C23)" id="Body"/>
<path d="M87.7273 69.1328C87.4639 69.6473 86.5329 71.6027 84.7596 75.2677C83.7968 77.2576 82.6443 79.4503 82.0102 80.6641C81.2903 82.0422 80.6528 83.308 79.7072 85.3347C78.9818 86.8893 78.0151 88.8 76.7791 91.0421C75.7865 92.8428 74.9237 94.7764 74.2137 96.6656C73.5294 98.4867 73.6776 99.4248 73.7489 99.8081C73.9684 100.989 75.6199 100.762 76.9884 100.808C79.1336 100.881 80.8144 100.611 81.3512 100.522C81.8627 100.492 82.3317 100.459 84.6315 100.418C86.7169 100.41 90.667 100.426 94.7368 100.442" id="Nose" stroke="var(--stroke-0, #F6F5F2)" stroke-linecap="round" stroke-width="3"/>
<g id="Glasses">
<path d="M66.2273 69.2186C68.041 66.9876 69.4708 66.5378 70.4149 66.541C71.3591 66.5442 72.5349 66.8651 72.819 66.9876C73.383 67.2505 74.0416 67.5524 74.7268 67.8701C75.832 68.5587 77 69.4519 77.6365 70.5749L77.6574 70.6119C78.3421 71.8195 79.4771 73.8211 79.019 76.5307C78.7541 78.0977 78.3868 79.514 77.4364 80.5188C76.3041 81.7159 74.9752 82.8184 73.8778 83.3261C72.7769 83.8354 71.4565 84.5151 69.8247 84.2201C68.2384 83.9334 65.0656 83.2758 64.2428 81.3969C63.721 80.2052 62.7869 78.2079 63.3807 75.5727C64.1138 72.3192 65.1394 70.557 66.2273 69.2186Z" id="Vector 36" stroke="var(--stroke-0, #FFD226)" stroke-linecap="round" stroke-width="3"/>
<path d="M69.9531 73.3816C70.5222 72.6275 70.9708 72.4755 71.267 72.4766C71.5633 72.4776 71.9322 72.5861 72.0214 72.6275C72.1983 72.7164 72.405 72.8184 72.62 72.9258C72.9668 73.1586 73.3333 73.4605 73.533 73.8401L73.5395 73.8526C73.7544 74.2608 74.1105 74.9373 73.9668 75.8532C73.8836 76.3829 73.7684 76.8616 73.4702 77.2013C73.1149 77.6059 72.6979 77.9786 72.3536 78.1502C72.0082 78.3223 71.5939 78.5521 71.0818 78.4524C70.5841 78.3555 69.5886 78.1332 69.3304 77.4981C69.1667 77.0953 68.8736 76.4202 69.0599 75.5294C69.2899 74.4297 69.6117 73.834 69.9531 73.3816Z" fill="var(--fill-0, #181814)" id="Vector 41"/>
<path d="M93.631 68.6231C95.4446 66.3921 96.8744 65.9423 97.8185 65.9455C98.7627 65.9487 99.9386 66.2696 100.223 66.3921C100.787 66.655 101.445 66.9569 102.13 67.2746C103.236 67.9632 104.404 68.8564 105.04 69.9794L105.061 70.0163C105.746 71.2239 106.881 73.2256 106.423 75.9352C106.158 77.5022 105.79 78.9185 104.84 79.9232C103.708 81.1203 102.379 82.2228 101.281 82.7305C100.181 83.2399 98.8601 83.9195 97.2283 83.6246C95.642 83.3379 92.4692 82.6802 91.6464 80.8014C91.1246 79.6096 90.1905 77.6124 90.7843 74.9772C91.5174 71.7237 92.543 69.9615 93.631 68.6231Z" id="Vector 37" stroke="var(--stroke-0, #FFD226)" stroke-linecap="round" stroke-width="3"/>
<path d="M96.9531 73.2308C97.5222 72.6024 97.9708 72.4757 98.267 72.4766C98.5633 72.4775 98.9322 72.5679 99.0214 72.6024C99.1983 72.6764 99.405 72.7614 99.62 72.8509C99.9668 73.0449 100.333 73.2965 100.533 73.6128L100.54 73.6232C100.754 73.9634 101.11 74.5272 100.967 75.2904C100.884 75.7319 100.768 76.1308 100.47 76.4138C100.115 76.751 99.6979 77.0616 99.3536 77.2046C99.0082 77.348 98.5939 77.5395 98.0818 77.4564C97.5841 77.3756 96.5886 77.1904 96.3304 76.6612C96.1667 76.3255 95.8736 75.7629 96.0599 75.0206C96.2899 74.1042 96.6117 73.6078 96.9531 73.2308Z" fill="var(--fill-0, #181814)" id="Vector 42"/>
<path d="M79.6348 76.4521C79.7023 76.434 80.7821 76.0982 82.7926 75.5424C84.5789 75.0486 85.6699 75.0644 86.259 75.0599C88.3118 75.0869 89.1032 75.2232 89.2829 75.2972C89.3717 75.3362 89.4556 75.3783 89.5419 75.4216" id="Vector 38" stroke="var(--stroke-0, #FFD226)" stroke-linecap="round" stroke-width="3"/>
<path d="M62.8591 75.402C62.7646 75.3655 62.67 75.329 61.2973 74.9415C59.9246 74.5539 57.2765 73.8164 54.3156 73.1637C51.3547 72.5109 48.1612 71.9653 44.7036 71.3541" id="Vector 39" stroke="var(--stroke-0, #FFD226)" stroke-linecap="round" stroke-width="3"/>
<path d="M107.786 76.3445C107.793 76.3374 107.8 76.3303 110.434 75.94C113.067 75.5498 118.328 74.7766 121.096 74.3667C123.864 73.9568 123.981 73.9335 124.228 73.8665" id="Vector 40" stroke="var(--stroke-0, #FFD226)" stroke-linecap="round" stroke-width="3"/>
</g>
<g id="Container">
<path d="M71.4665 130.868C72.7046 128.605 73.4401 127.678 74.197 127.497C74.954 127.315 74.6049 127.433 74.8683 127.429C76.236 127.409 77.453 128.078 78.0362 128.93C78.2994 129.314 79.07 130.486 79.469 132.184C79.7991 133.59 79.9758 134.703 79.5454 135.542C78.835 136.926 78.3552 137.759 77.6177 138.832C76.64 140.253 75.4836 141.902 74.8207 142.922C74.128 143.987 73.4805 144.856 72.8211 145.88C71.9908 147.169 70.9036 148.838 70.289 149.792C69.7889 150.569 68.9702 151.824 68.1045 153.449C66.602 156.27 65.5135 158.408 63.5325 158.962C62.265 159.316 60.9175 159.547 60.203 158.806C59.8183 158.407 59.2465 157.891 58.9531 157.183C58.7337 156.653 58.8008 156.166 58.9795 155.657C59.3107 154.713 59.9506 152.82 61.1565 150.567C61.9884 149.012 63.0223 146.94 63.7554 145.645C64.2087 144.844 64.9472 143.656 67.5718 138.475C68.7562 136.137 70.4445 132.736 71.4665 130.868Z" fill="var(--fill-0, #857F72)" id="Vector 116"/>
<path d="M81.0665 117.221C82.3268 117.596 83.6008 118.067 83.6008 118.067C83.6008 118.067 85.2529 118.757 85.7159 119.017C86.3615 119.396 86.75 119.69 87.1908 120.099C87.7052 120.643 88.4412 121.422 89.0545 122.411C89.5508 123.213 89.8609 123.655 90.1454 124.288C91.2878 126.828 91.4471 127.409 91.406 127.939C91.3141 129.126 91.0905 130.543 90.5099 131.51C90.0823 132.222 89.2951 133.449 88.042 134.459C87.1654 135.166 86.1817 135.838 84.8866 136.213C83.7039 136.555 82.5485 136.731 81.2493 136.58C80.5082 136.495 79.616 136.337 78.6822 136.088C77.7485 135.838 76.8017 135.508 75.8018 135.057C74.8018 134.607 73.7621 134.082 73.184 133.71C72.0625 132.99 71.0839 132.251 70.6516 131.725C70.181 131.151 69.2128 129.79 68.9702 128.76C68.7716 127.918 68.6073 126.988 68.7925 126.1C69.024 124.99 69.3939 123.789 69.827 122.921C70.0222 122.53 70.1281 122.192 70.4876 121.668C71.4113 120.322 71.9849 119.574 72.9065 118.965C73.5035 118.57 74.4863 118.051 75.5151 117.649C76.1502 117.401 76.5516 117.125 77.6663 117.035C78.824 116.943 80.0842 116.929 81.0665 117.221Z" fill="var(--fill-0, #181814)" id="Vector 117"/>
</g>
<g id="hand">
<path d="M38.3488 134.016C40.141 133.466 43.5426 132.374 44.3866 132.213L38.9259 126.389C38.2485 126.583 38.0057 126.671 37.7057 126.773C37.0591 126.987 32.6346 128.963 29.634 130.4C27.4612 131.682 24.0977 133.958 22.2048 135.463C20.863 136.53 17.5771 138.747 16.9805 141.221C16.5881 142.849 16.4154 144.181 17.1841 145.057C17.5638 145.49 18.1527 146.276 19.4464 147.019C23.6539 149.436 29.1784 152.023 31.0328 152.251C32.4204 152.422 34.0918 152.306 36.7188 152.925C40.244 153.757 43.7276 154.683 45.8682 154.736C47.7517 154.783 49.1756 154.837 50.4762 154.914C52.4249 155.03 55.4991 155.483 58.2178 155.504C59.6351 155.515 61.0423 155.024 62.3996 155.792C62.7231 155.975 62.9612 156.242 63.2255 156.512C64.2918 157.602 65.3395 158.881 67.4277 159.441C69.2746 159.936 71.4124 160.605 72.5665 159.71C72.8052 159.524 72.9281 159.26 72.7359 159.012C72.3262 158.483 68.6466 156.718 69.9114 156.933C70.5684 157.045 73.3039 158.248 74.1982 157.458C74.3569 157.318 74.4822 157.049 74.2822 156.821C73.8571 156.337 68.7049 154.112 70.3754 154.306C72.3354 154.533 76.3772 155.523 76.7496 154.637C76.8224 154.464 76.6928 154.196 76.2165 153.924C75.0408 153.252 72.5205 152.802 70.7269 151.16C70.5321 150.982 70.8095 150.963 71.3588 151.12C74.1848 151.932 76.4341 152.772 77.4451 152.455C77.671 152.384 77.9977 152.245 77.8569 152.042C77.0376 150.859 74.9581 148.798 72.0709 147.882C69.3845 147.031 63.8155 145.876 64.9329 145.92C66.5963 145.986 69.5344 146.864 70.5192 146.007C70.6982 145.852 70.7838 145.576 70.2829 145.278C68.9114 144.464 67.6334 143.782 66.9043 143.63C65.3252 143.299 63.0195 143.001 61.0098 143.617C59.0682 144.212 57.9022 144.606 56.4769 144.699C55.0613 144.792 53.6102 144.95 52.169 144.902C49.3282 144.807 44.9231 144.501 41.8531 143.718C38.9168 142.969 35.5127 142.253 34.397 140.672C34.0289 140.15 33.7139 139.508 33.7409 138.86C33.7688 138.192 33.8939 137.526 34.4744 136.916C36.073 135.234 37.0461 134.415 38.3488 134.016Z" fill="var(--fill-0, #EC6C23)" id="Vector 116_2"/>
<path d="M44.3866 132.213C43.5426 132.374 40.141 133.466 38.3488 134.016C37.0461 134.415 36.073 135.234 34.4744 136.916C33.8939 137.526 33.7688 138.192 33.7409 138.86C33.7139 139.508 34.0289 140.15 34.397 140.672C35.5127 142.253 38.9168 142.969 41.8531 143.718C44.9231 144.501 49.3282 144.807 52.169 144.902C53.6102 144.95 55.0613 144.792 56.4769 144.699C57.9022 144.606 59.0682 144.212 61.0098 143.617C63.0195 143.001 65.3252 143.299 66.9043 143.63C67.6334 143.782 68.9114 144.464 70.2829 145.278C70.7838 145.576 70.6982 145.852 70.5192 146.007C69.5344 146.864 66.5963 145.986 64.9329 145.92C63.8155 145.876 69.3845 147.031 72.0709 147.882C74.9581 148.798 77.0376 150.859 77.8569 152.042C77.9977 152.245 77.671 152.384 77.4451 152.454C76.4341 152.772 74.1848 151.932 71.3588 151.12C70.8095 150.963 70.5321 150.982 70.7269 151.16C72.5205 152.802 75.0408 153.252 76.2165 153.924C76.6928 154.196 76.8224 154.464 76.7496 154.637C76.3772 155.523 72.3354 154.533 70.3754 154.306C68.7049 154.112 73.8571 156.337 74.2822 156.821C74.4822 157.049 74.3569 157.318 74.1982 157.458C73.3039 158.248 70.5684 157.045 69.9114 156.933C68.6466 156.718 72.3262 158.483 72.7359 159.012C72.9281 159.26 72.8052 159.524 72.5665 159.71C71.4124 160.605 69.2746 159.936 67.4277 159.441C65.3395 158.881 64.2918 157.602 63.2255 156.512C62.9612 156.242 62.7231 155.975 62.3996 155.792C61.0423 155.024 59.6351 155.515 58.2178 155.504C55.4991 155.483 52.4249 155.03 50.4762 154.914C49.1756 154.837 47.7517 154.783 45.8682 154.736C43.7276 154.683 40.244 153.757 36.7188 152.925C34.0918 152.306 32.4204 152.422 31.0328 152.251C29.1784 152.023 23.6539 149.436 19.4464 147.019C18.1527 146.276 17.5638 145.49 17.1841 145.057C16.4154 144.181 16.5881 142.849 16.9805 141.221C17.5771 138.747 20.863 136.53 22.2048 135.463C24.0977 133.958 27.4612 131.682 29.634 130.4C32.6346 128.963 37.0591 126.987 37.7057 126.773C38.0057 126.671 38.2485 126.583 38.9259 126.389" id="Vector 115" stroke="var(--stroke-0, #F6F5F2)" stroke-width="2"/>
</g>
</g>
</svg>