<?xml version="1.0" encoding="utf-8"?>
<svg xmlns="http://www.w3.org/2000/svg" fill="none" height="100%" overflow="visible" preserveAspectRatio="none" style="display: block;" viewBox="0 0 93.3334 79.0136" width="100%">
<g id="Group 2">
<path d="M2.90545 29.0525C7.21528 19.3989 8.04946 14.6363 19.8137 5.83607C31.5779 -2.96417 72.8316 -0.332557 83.9284 4.09984C88.1935 7.16141 93.4208 10.3067 93.3323 17.014C92.9731 44.2328 90.972 62.5519 83.4689 70.4444C79.1707 74.9657 73.594 79.1884 65.1492 79.008C37.6354 78.4204 9.99596 77.3167 5.70918 68.0319C1.89792 59.7771 -3.36136 43.0895 2.90545 29.0525Z" fill="var(--fill-0, #EC6C23)" id="Body"/>
<g id="Eye left">
<path d="M25.9415 56.8105C48.0275 41.6569 39.8906 26.5034 25.9415 25.3378C11.9925 24.1721 6.18042 68.467 25.9415 56.8105Z" fill="var(--fill-0, #F6F5F2)" id="Vector 37"/>
<path d="M26.0475 43.7333C33.0697 44.7038 33.4208 34.9984 27.8031 34.9984C22.1853 34.9984 19.0254 42.7627 26.0475 43.7333Z" fill="var(--fill-0, #181814)" id="Vector 41" stroke="var(--stroke-0, #181814)"/>
</g>
<g id="Eye right">
<path d="M78.9468 50.7948C62.9921 73.6117 47.0374 65.2055 45.8101 50.7948C44.5828 36.3841 91.2196 30.3796 78.9468 50.7948Z" fill="var(--fill-0, #F6F5F2)" id="Vector 38"/>
<path d="M61.2677 55.1704C68.2898 56.238 68.6409 45.5621 63.0232 45.5621C57.4055 45.5621 54.2455 54.1028 61.2677 55.1704Z" fill="var(--fill-0, #181814)" id="Vector 42" stroke="var(--stroke-0, #181814)"/>
</g>
</g>
</svg>