<?xml version="1.0" encoding="utf-8"?>
<svg xmlns="http://www.w3.org/2000/svg" fill="none" height="100%" overflow="visible" preserveAspectRatio="none" style="display: block;" viewBox="0 0 93.3334 80.944" width="100%">
<g id="Group 1">
<path d="M1.48467 36.0607C5.88755 19.9052 6.82241 11.4561 19.3105 3.36212C39.4757 -9.70772 79.4103 19.5434 79.4103 19.5434C79.4103 19.5434 92.914 30.6211 93.1765 39.5612C93.5834 53.4242 93.4109 65.3694 90.0378 70.7715C86.9539 75.7101 82.7807 80.8746 76.3423 80.9302C51.2628 81.1469 15.088 78.8997 5.47135 65.9703C2.06484 61.3903 -2.35013 50.1317 1.48467 36.0607Z" fill="var(--fill-0, #0056A1)" id="Body"/>
<g id="Left Eye">
<path d="M26.2534 22.3351C52.5585 40.3339 42.8671 58.3327 26.2534 59.7173C9.63976 61.1018 2.71736 8.48987 26.2534 22.3351Z" fill="var(--fill-0, #F6F5F2)" id="Vector 37"/>
<path d="M27.7794 36.7134C35.8095 35.4923 36.211 47.7038 29.7869 47.7038C23.3628 47.7038 19.7493 37.9345 27.7794 36.7134Z" fill="var(--fill-0, #181814)" id="Vector 41" stroke="var(--stroke-0, #181814)"/>
</g>
<g id="Right Eye">
<path d="M87.2943 36.307C69.2962 10.001 51.298 19.6927 49.9135 36.307C48.529 52.9213 101.139 59.8439 87.2943 36.307Z" fill="var(--fill-0, #F6F5F2)" id="Vector 38"/>
<path d="M66.5449 31.176C74.575 29.9549 74.9765 42.1664 68.5524 42.1664C62.1283 42.1664 58.5148 32.3971 66.5449 31.176Z" fill="var(--fill-0, #181814)" id="Vector 42" stroke="var(--stroke-0, #181814)"/>
</g>
</g>
</svg>