<?xml version="1.0" encoding="utf-8"?>
<svg xmlns="http://www.w3.org/2000/svg" fill="none" height="100%" overflow="visible" preserveAspectRatio="none" style="display: block;" viewBox="0 0 93.3334 49.7448" width="100%">
<g id="Group 3">
<path d="M2.533 12.5079C11.9112 4.45833 28.4151 -1.70724 45.8452 0.426026C48.7541 0.782037 51.8869 1.55902 53.2201 1.81276C55.63 2.24684 59.0122 3.31604 64.4248 5.3887C78.0519 10.9984 89.5101 15.2968 92.4101 24.0922C93.3513 26.9468 93.7475 29.4905 92.754 31.8868C90.2218 37.9945 85.602 44.9576 80.5295 46.9329C74.4477 49.3013 53.3557 52.0253 34.6401 46.5481C21.3162 42.6488 9.93912 38.4495 5.43794 33.7148C2.44428 30.5658 0.345438 28.1268 0.327703 24.9903C0.302319 20.5011 -1.22324 15.732 2.533 12.5079Z" fill="var(--fill-0, #498D44)" id="Body"/>
<g id="Eye">
<path d="M54.2997 14.7477C40.7061 24.0726 45.7143 33.3975 54.2997 34.1148C62.8852 34.8321 66.4625 7.57467 54.2997 14.7477Z" fill="var(--fill-0, #F6F5F2)" id="Vector 37"/>
<path d="M53.5105 22.1949C49.3608 21.5622 49.1533 27.8888 52.4731 27.8888C55.7929 27.8888 57.6602 22.8275 53.5105 22.1949Z" fill="var(--fill-0, #181814)" id="Vector 41"/>
</g>
<g id="Eye_2">
<path d="M22.7524 21.9863C32.0533 8.35757 41.3543 13.3787 42.0697 21.9863C42.7852 30.5939 15.5978 34.1804 22.7524 21.9863Z" fill="var(--fill-0, #F6F5F2)" id="Vector 38"/>
<path d="M33.4775 19.3261C29.3277 18.6934 29.1202 25.02 32.44 25.02C35.7598 25.02 37.6272 19.9587 33.4775 19.3261Z" fill="var(--fill-0, #181814)" id="Vector 42"/>
</g>
</g>
</svg>