<?xml version="1.0" encoding="utf-8"?>
<svg xmlns="http://www.w3.org/2000/svg" fill="none" height="100%" overflow="visible" preserveAspectRatio="none" style="display: block;" viewBox="0 0 89.6 75.8531" width="100%">
<g id="Group 2">
<path d="M2.78915 27.8904C6.92659 18.6229 7.7274 14.0509 19.021 5.60263C30.3147 -2.8456 69.9183 -0.319255 80.5712 3.93584C84.6657 6.87495 89.6839 9.89444 89.5989 16.3335C89.2541 42.4635 87.3331 60.0498 80.13 67.6266C76.0038 71.967 70.6502 76.0209 62.5432 75.8477C36.1299 75.2836 9.59604 74.224 5.48073 65.3106C1.82192 57.386 -3.22699 41.3659 2.78915 27.8904Z" fill="var(--fill-0, #EC6C23)" id="Body"/>
<g id="Eye left">
<path d="M24.9038 54.5381C46.1063 39.9907 38.2949 25.4433 24.9038 24.3242C11.5127 23.2052 5.93312 65.7284 24.9038 54.5381Z" fill="var(--fill-0, #F6F5F2)" id="Vector 37"/>
<path d="M25.0055 41.9839C31.7468 42.9156 32.0839 33.5985 26.6909 33.5985C21.2978 33.5985 18.2643 41.0522 25.0055 41.9839Z" fill="var(--fill-0, #181814)" id="Vector 41" stroke="var(--stroke-0, #181814)"/>
</g>
<g id="Eye right">
<path d="M75.7888 48.763C60.4723 70.6672 45.1558 62.5972 43.9776 48.763C42.7994 34.9287 87.5708 29.1644 75.7888 48.763Z" fill="var(--fill-0, #F6F5F2)" id="Vector 38"/>
<path d="M58.8169 52.9636C65.5581 53.9885 65.8952 43.7396 60.5022 43.7396C55.1092 43.7396 52.0756 51.9387 58.8169 52.9636Z" fill="var(--fill-0, #181814)" id="Vector 42" stroke="var(--stroke-0, #181814)"/>
</g>
</g>
</svg>